<?xml version="1.0" encoding="UTF-8"?>
<svg width="80px" height="96px" viewBox="0 0 80 96" version="1.1" xmlns="http://www.w3.org/2000/svg" xmlns:xlink="http://www.w3.org/1999/xlink">
    <g id="Page-1" stroke="none" stroke-width="1" fill="none" fill-rule="evenodd">
        <g id="Artboard" transform="translate(-43.000000, -4.000000)" fill-rule="nonzero" fill="#FFFFFF">
            <g id="logo" transform="translate(43.000000, 4.000000)">
                <g id="safe" transform="translate(16.038647, 21.256039)">
                    <path d="M23.9055588,16.474519 C24.7039269,16.4746153 25.4128442,15.9639855 25.6656816,15.2067108 C25.9185189,14.449436 25.6585805,13.6153266 25.0202979,13.1357569 C24.3820154,12.6561872 23.5085164,12.6386952 22.8515463,13.0923272 L20.243466,11.5869661 C20.2480119,11.53761 20.2512591,11.4889033 20.2512591,11.4382484 C20.2512591,11.3875935 20.2512591,11.3388868 20.243466,11.2895307 L22.8515463,9.7841696 C23.1795281,10.0102059 23.5718158,10.1241105 23.9698516,10.1088808 C24.9795087,10.0711559 25.7733759,9.23250416 25.7556902,8.22229732 C25.7380045,7.21209048 24.9152682,6.40174061 23.9049094,6.39938016 C23.5282034,6.39899666 23.1604002,6.51389267 22.8508968,6.7286373 L20.2441154,5.22457507 C20.2486614,5.17521897 20.2519085,5.12651229 20.2519085,5.07585735 C20.2525923,4.22137659 19.6700049,3.47675861 18.8404567,3.27184949 C18.0109086,3.06694037 17.1486203,3.45465534 16.7513654,4.21117792 C16.3541106,4.9677005 16.5244754,5.89766821 17.1641132,6.46423799 C17.803751,7.03080777 18.7474833,7.08767006 19.4505213,6.60199994 L22.0586015,8.10736102 C22.0540556,8.15671712 22.0508085,8.20607322 22.0508085,8.25607874 C22.0508085,8.30608426 22.0508085,8.35544036 22.0586015,8.40479647 L19.4505213,9.91080696 C18.8164003,9.47260907 17.9772666,9.47260907 17.3431456,9.91080696 L14.7350654,8.40544589 C14.7396113,8.35608979 14.7428584,8.30738311 14.7428584,8.25672816 C14.7426613,7.54061191 14.3300858,6.88863147 13.6830011,6.58186785 L13.6830011,3.6062145 C14.4959979,3.22078502 14.926064,2.3169679 14.7123356,1.44298856 C14.5523273,0.760281261 14.0220803,0.225515136 13.3407555,0.0597188885 C12.395425,-0.182737682 11.4205929,0.332670724 11.0886826,1.25042367 C10.7567723,2.16817662 11.1764143,3.18790411 12.0581463,3.6062145 L12.0581463,6.60135052 C11.4302105,6.89860233 11.0226828,7.52359912 11.0039581,8.21808556 C10.9852333,8.91257201 11.358491,9.55862035 11.9694972,9.88927655 C12.5805033,10.2199327 13.3255056,10.1790495 13.8966611,9.78352018 L16.4898046,11.2771917 C16.4852587,11.3265478 16.482661,11.3752544 16.482661,11.42526 C16.482661,11.4752655 16.482661,11.5239722 16.4898046,11.5726788 L13.8966611,13.0663503 C13.2663865,12.6302904 12.431899,12.6302904 11.8016245,13.0663503 L9.20848091,11.5726788 C9.21302687,11.5239722 9.21562456,11.4752655 9.21562456,11.42526 C9.21543264,10.7132176 8.80510091,10.0649794 8.16161204,9.76014097 L8.16161204,6.71499943 C8.92993368,6.35055248 9.34306571,5.50227788 9.15628072,4.67266888 C8.96949572,3.84305988 8.23268141,3.25369367 7.38230518,3.25369367 C6.53192895,3.25369367 5.79511464,3.84305988 5.60832965,4.67266888 C5.42154465,5.50227788 5.83467668,6.35055248 6.60299833,6.71499943 L6.60299833,9.76728462 C6.51258869,9.80986468 6.42572304,9.85959526 6.34322937,9.91600234 L3.73125256,8.40609531 C3.73579852,8.35673921 3.73904563,8.30738311 3.73904563,8.25737759 C3.73989389,7.3362937 3.06601269,6.55352434 2.15503938,6.41742187 C1.24406608,6.28131941 0.370822086,6.83294309 0.102416552,7.71405302 C-0.165988982,8.59516295 0.251416225,9.53994687 1.08355752,9.93483559 L1.08355752,12.9072418 C0.271037645,13.2928056 -0.158896783,14.1960747 0.0542230498,15.0698183 C0.214553951,15.7518514 0.744428555,16.2859931 1.42515369,16.4517892 C2.37079215,16.6944104 3.34595429,16.178642 3.67762884,15.2604431 C4.00930338,14.3422442 3.58885784,13.3223502 2.70646405,12.9046441 L2.70646405,9.93938155 C2.79694813,9.89769625 2.88383334,9.84860611 2.966233,9.79261209 L5.55937656,11.2862836 C5.55548003,11.3356397 5.55223291,11.3843463 5.55223291,11.4343519 C5.55251699,12.1462056 5.96285904,12.7942073 6.60624544,13.0988214 L6.60624544,16.1881237 C5.9722591,16.4888494 5.56787704,17.1275203 5.56716963,17.829214 C5.56716963,17.8785701 5.57106616,17.9266274 5.57431328,17.9746847 L3.01623852,19.4547183 C2.32736929,18.9794844 1.40309239,19.0357961 0.777011467,19.5911435 C0.150930542,20.1464908 -0.0152588118,21.0574463 0.374387863,21.798097 C0.764034537,22.5387477 1.60888464,22.9178085 2.42118921,22.71644 C3.23349379,22.5150715 3.80346194,21.7852804 3.8020396,20.9483897 C3.8020396,20.8990336 3.8020396,20.8503269 3.79489596,20.8022697 L6.35037302,19.326782 C6.91357022,19.7211089 7.65101081,19.7640748 8.25619157,19.4378219 C8.86137233,19.1115689 9.23079945,18.4718907 9.21092754,17.7846572 C9.19105562,17.0974237 8.78528303,16.480161 8.16226146,16.1894225 L8.16226146,13.1215512 C8.25274824,13.0798712 8.33963388,13.0307808 8.42203041,12.9747818 L11.015174,14.4684532 C11.0112774,14.5171599 11.0080303,14.566516 11.0080303,14.6165215 C11.0083144,15.3283753 11.4186565,15.9763769 12.0620428,16.2809911 L12.0620428,19.3034028 C12.0620428,19.3034028 11.0366049,20.2405193 11.0366049,20.979562 C11.0366049,21.0295675 11.0405014,21.0789236 11.044398,21.1282797 L8.4363177,22.6336408 C7.73384751,22.1487437 6.79118303,22.2056779 6.15217907,22.7715962 C5.51317511,23.3375145 5.34272117,24.2663866 5.73915785,25.0223149 C6.13559452,25.7782431 6.99662474,26.1661669 7.82549123,25.9622798 C8.65435772,25.7583927 9.2371786,25.0153061 9.23770492,24.1617317 C9.23770492,24.1117261 9.23770492,24.06237 9.22991185,24.0130139 L11.8379921,22.5076529 C11.9198193,22.5635032 12.0061925,22.6128593 12.0581463,22.6557212 L12.0581463,25.6683916 C11.4313086,25.9921432 11.0372958,26.6383943 11.0366049,27.3439013 C11.0366049,28.3686103 11.8672957,29.1993011 12.8920046,29.1993011 C13.9167136,29.1993011 14.7474044,28.3686103 14.7474044,27.3439013 C14.7474044,27.2938958 14.7474044,27.2445397 14.7396113,27.1951836 L17.3476916,25.6898225 C18.0501618,26.1747197 18.9928263,26.1177854 19.6318302,25.5518671 C20.2708342,24.9859488 20.4412881,24.0570767 20.0448514,23.3011485 C19.6484148,22.5452202 18.7873846,22.1572965 17.9585181,22.3611836 C17.1296516,22.5650706 16.5468307,23.3081572 16.5463044,24.1617317 C16.5463044,24.2123866 16.5463044,24.2617427 16.5540974,24.3104494 L13.9460172,25.8158105 C13.8628226,25.7585257 13.7745671,25.7089635 13.6823517,25.6677422 L13.6823517,22.6557212 C14.3327663,22.3512591 14.7480399,21.6977095 14.7474044,20.979562 C14.7474044,20.9295565 14.7474044,20.879551 14.7396113,20.8308443 L17.3476916,19.3254832 C17.9816959,19.7640547 18.8210629,19.7640547 19.4550672,19.3254832 L22.0631475,20.8308443 C22.0586015,20.8802004 22.0553544,20.9295565 22.0553544,20.979562 C22.0549696,21.8339824 22.6377367,22.5783601 23.4672798,22.783037 C24.2968229,22.9877138 25.1589548,22.5998424 25.556049,21.8433039 C25.9531432,21.0867654 25.7826704,20.1568973 25.1430283,19.5904237 C24.5033861,19.0239502 23.5597296,18.9671341 22.8567416,19.45277 L20.2486614,17.9474089 C20.2532073,17.8980528 20.2564544,17.8493461 20.2564544,17.7986912 C20.2564545,17.1358207 19.9028173,16.5233031 19.3287546,16.1918678 C18.7546919,15.8604326 18.0474175,15.8604326 17.4733548,16.1918678 C16.8992921,16.5233031 16.5456549,17.1358207 16.545655,17.7986912 C16.545655,17.8486967 16.545655,17.8980528 16.553448,17.9474089 L13.9453677,19.45277 C13.8635405,19.3969197 13.6817023,19.3047017 13.6817023,19.3047017 L13.6817023,16.2933301 C14.3291907,15.9871655 14.7423313,15.3353438 14.7428584,14.6191192 C14.7428584,14.5691137 14.7428584,14.5191082 14.7350654,14.4704015 L17.3405479,12.964391 C17.9745523,13.4029625 18.8139192,13.4029625 19.4479236,12.964391 L22.0560038,14.4697521 C22.0514579,14.5191082 22.0482108,14.5684643 22.0482108,14.6184698 C22.0482108,15.1105524 22.2436898,15.5824806 22.5916448,15.9304355 C22.9395997,16.2783905 23.4115279,16.4738695 23.9036105,16.4738695" id="Shape"></path>
                </g>
                <path d="M66.7547239,74.8462056 C66.7547239,75.6553538 66.0467193,76.3633584 65.2375711,76.3633584 L53.7072097,76.3633584 L56.1346542,78.7908029 C56.4380848,79.0942335 56.5392283,79.4988076 56.5392283,79.9033816 C56.5392283,80.3079557 56.4380848,80.7125298 56.1346542,81.0159604 C55.8312236,81.3193909 55.4266495,81.4205345 55.0220755,81.4205345 C54.6175014,81.4205345 54.2129273,81.3193909 53.9094967,81.0159604 L48.8523207,75.9587843 L48.8523207,75.9587843 C48.5488901,75.6553538 48.4477466,75.3519232 48.4477466,74.9473491 L48.4477466,74.6439185 C48.4477466,74.340488 48.6500336,74.0370574 48.8523207,73.8347704 L48.9534642,73.7336269 C49.2568948,73.4301963 49.5603253,73.3290528 49.9648994,73.3290528 L49.9648994,73.3290528 L65.1364276,73.3290528 C66.0467193,73.3290528 66.7547239,74.0370574 66.7547239,74.8462056 Z M50.0660429,72.3176176 L65.2375711,72.3176176 L65.2375711,72.3176176 C65.6421452,72.3176176 65.9455757,72.216474 66.2490063,71.9130435 L66.3501498,71.8119 C66.5524369,71.6096129 66.6535804,71.3061824 66.7547239,71.0027518 L66.7547239,70.6993212 C66.7547239,70.3958907 66.5524369,69.9913166 66.3501498,69.687886 L66.3501498,69.687886 L61.2929738,64.63071 C60.6861126,64.0238488 59.775821,64.0238488 59.1689598,64.63071 C58.8655293,64.9341405 58.7643857,65.3387146 58.7643857,65.7432887 C58.7643857,66.1478628 58.8655293,66.5524369 59.1689598,66.8558674 L61.5964043,69.2833119 L50.0660429,69.2833119 C49.2568948,69.2833119 48.5488901,69.9913166 48.5488901,70.8004647 C48.5488901,71.6096129 49.2568948,72.3176176 50.0660429,72.3176176 Z M69.485599,84.6571271 C66.2490063,87.8937198 62.0009784,89.5120161 57.651807,89.5120161 C53.3026356,89.5120161 49.0546077,87.8937198 45.818015,84.6571271 C39.3448297,78.1839418 39.3448297,67.5638721 45.818015,61.0906867 C52.2912004,54.6175014 62.9112701,54.6175014 69.3844555,61.0906867 C75.9587843,67.5638721 75.9587843,78.0827983 69.485599,84.6571271 Z M67.2604415,63.2147007 C64.63071,60.5849691 61.0906867,59.2701033 57.651807,59.2701033 C54.2129273,59.2701033 50.6729041,60.5849691 48.0431725,63.2147007 C42.6825659,68.5753073 42.6825659,77.1725066 48.0431725,82.5331132 C53.4037791,87.8937198 62.0009784,87.8937198 67.361585,82.5331132 C72.7221916,77.1725066 72.6210481,68.4741638 67.2604415,63.2147007 Z M8.29376873,5.05717605 C7.18119,5.05717605 6.27089831,5.96746774 6.27089831,7.08004647 C6.27089831,8.19262521 7.18119,9.1029169 8.29376873,9.1029169 L52.8980615,9.1029169 C54.0106402,9.1029169 54.9209319,8.19262521 54.9209319,7.08004647 C54.9209319,5.96746774 54.0106402,5.05717605 52.8980615,5.05717605 L8.29376873,5.05717605 Z M79.9033816,72.8233352 C79.9033816,85.0617012 69.8901731,95.0749098 57.651807,95.0749098 C46.0203021,95.0749098 36.5128111,86.1742799 35.5013759,74.8462056 L8.69834281,74.8462056 C3.94459732,74.8462056 0,71.2050388 0,66.7547239 L0,7.08004647 C0,3.13544915 3.43887972,0 7.58576408,0 L57.651807,0 C58.7643857,0 59.6746774,0.91029169 59.6746774,2.02287042 C59.6746774,3.13544915 58.7643857,4.04574084 57.651807,4.04574084 L7.58576408,4.04574084 C5.66403718,4.04574084 4.04574084,5.36060662 4.04574084,7.08004647 C4.04574084,8.79948633 5.66403718,10.1143521 7.58576408,10.1143521 L57.651807,10.1143521 C58.7643857,10.1143521 59.6746774,11.0246438 59.6746774,12.1372225 L59.6746774,50.6729041 C71.0027518,51.6843393 79.9033816,61.1918302 79.9033816,72.8233352 Z M8.69834281,70.8004647 L35.5013759,70.8004647 C36.5128111,60.180395 45.0088669,51.5831957 55.6289366,50.6729041 L55.6289366,14.1600929 L7.58576408,14.1600929 C6.27089831,14.1600929 5.05717605,13.8566624 4.04574084,13.3509448 L4.04574084,66.7547239 C4.04574084,68.9798814 6.16975479,70.8004647 8.69834281,70.8004647 Z M75.8576408,72.8233352 C75.8576408,62.8101266 67.6650156,54.6175014 57.651807,54.6175014 C47.6385984,54.6175014 39.4459732,62.8101266 39.4459732,72.8233352 C39.4459732,82.8365438 47.6385984,91.029169 57.651807,91.029169 C67.6650156,91.029169 75.8576408,82.8365438 75.8576408,72.8233352 Z" id="Shape"></path>
            </g>
        </g>
    </g>
</svg>